<svg xmlns="http://www.w3.org/2000/svg" viewBox="0 0 512 512">
<circle cx="256" cy="256" r="248" fill="#1F7A55"/>
<circle cx="256" cy="256" r="226" fill="none" stroke="#3FB883" stroke-width="6" opacity="0.55"/>
<g transform="translate(230 250) scale(1.75)"><line x1="44" y1="44" x2="80" y2="80" stroke="#F4F1EA" stroke-width="26" stroke-linecap="round"/>
<circle cx="0" cy="0" r="62" fill="#D8F0E4" stroke="#F4F1EA" stroke-width="16"/>
<g stroke="#1F7A55" stroke-width="8" fill="none" stroke-linecap="round">
  <line x1="-14" y1="-28" x2="-14" y2="30"/>
  <path d="M20 -18 Q20 8 -14 16"/>
</g>
<circle cx="-14" cy="-28" r="9" fill="#1F7A55"/>
<circle cx="-14" cy="30" r="9" fill="#1F7A55"/>
<circle cx="20" cy="-22" r="9" fill="#1F7A55"/>
</g>
<g transform="translate(206 138) rotate(-14) scale(0.95)"><ellipse cx="0" cy="0" rx="136" ry="24" fill="#B38B4D"/>
<path d="M-64 0 L-42 -64 Q0 -84 42 -64 L64 0 Z" fill="#C8A165"/>
<path d="M-42 -64 L0 -40 L42 -64" stroke="#A67C3F" stroke-width="7" fill="none" stroke-linejoin="round"/>
<rect x="-62" y="-20" width="124" height="16" rx="3" fill="#5B3A1E"/>
</g>
</svg>